<svg width="247" height="27" viewBox="0 0 247 27" fill="none" xmlns="http://www.w3.org/2000/svg">
<path d="M121.165 8.1112C121.165 8.1112 121.061 8.02045 120.865 7.83896C120.669 7.65747 120.369 7.39222 119.982 7.05018C119.197 6.37308 118.03 5.36791 116.449 4.27199C115.653 3.72752 114.759 3.15513 113.746 2.6316C113.239 2.36635 112.704 2.11505 112.137 1.87772C111.57 1.64737 110.976 1.43098 110.355 1.24949C109.733 1.068 109.085 0.92141 108.409 0.802743C107.733 0.698038 107.03 0.628234 106.31 0.607293C106.13 0.607293 105.95 0.600312 105.765 0.607293C105.58 0.607293 105.4 0.614273 105.214 0.621253C105.029 0.635214 104.844 0.642195 104.653 0.656155C104.467 0.663136 104.277 0.691057 104.086 0.711998C103.328 0.795763 102.554 0.93537 101.764 1.13082C100.979 1.32627 100.188 1.59153 99.4088 1.94054C98.6238 2.28956 97.8551 2.73631 97.1138 3.28776C96.7485 3.56697 96.3833 3.86713 96.0399 4.20917C95.6965 4.54422 95.3694 4.91418 95.0587 5.31207C94.4481 6.11481 93.9194 7.03622 93.5432 8.06931C93.1671 9.10241 92.9218 10.2332 92.8618 11.4059C92.8509 11.5525 92.8509 11.6991 92.8455 11.8457C92.84 11.9923 92.8455 12.1389 92.8455 12.2924V12.5158C92.8455 12.5926 92.8564 12.6624 92.8564 12.7392C92.8618 12.8858 92.8727 13.0324 92.8782 13.1859C92.9327 13.7793 93.0254 14.3586 93.1616 14.938C93.3088 15.5104 93.4996 16.0618 93.734 16.5993C93.963 17.1368 94.2519 17.6324 94.5735 18.1071C94.8951 18.5818 95.2495 19.0215 95.6365 19.4334C96.0235 19.8382 96.4378 20.2152 96.8739 20.5572C97.7461 21.2413 98.711 21.7858 99.714 22.2116C100.722 22.6304 101.775 22.9305 102.848 23.0492C103.933 23.1679 105.034 23.1539 106.136 23.0003C107.237 22.8328 108.338 22.5327 109.423 22.1068C111.598 21.2483 113.696 19.936 115.768 18.4422C117.839 16.9484 119.895 15.287 122.048 13.7095C122.582 13.3186 123.116 12.9346 123.65 12.5437C124.179 12.1598 124.708 11.7689 125.231 11.378C126.278 10.5962 127.325 9.81441 128.371 9.05355C130.464 7.53183 132.569 6.08689 134.722 4.86532C135.801 4.25803 136.886 3.6996 137.993 3.23191C139.099 2.76423 140.217 2.37333 141.351 2.11505C142.484 1.8498 143.629 1.71019 144.768 1.74509C144.91 1.74509 145.052 1.74509 145.194 1.75905C145.335 1.77302 145.477 1.78698 145.619 1.80094L145.831 1.82188H145.935L146.039 1.8498C146.18 1.87074 146.317 1.89866 146.458 1.9196L146.666 1.95451C146.736 1.96847 146.802 1.98941 146.873 2.00337C147.009 2.03827 147.145 2.07317 147.287 2.10807C147.565 2.1709 147.832 2.26862 148.099 2.35937C148.372 2.44313 148.633 2.56878 148.895 2.68046L149.091 2.76423C149.157 2.79913 149.222 2.83403 149.282 2.86893C149.408 2.93874 149.538 3.00854 149.664 3.07835C149.795 3.14117 149.914 3.22493 150.04 3.3087C150.165 3.39246 150.285 3.46925 150.411 3.55301C150.53 3.63678 150.645 3.7345 150.765 3.82525L150.939 3.96485L151.027 4.03466C151.054 4.0556 151.081 4.08352 151.108 4.11144C151.217 4.21615 151.332 4.32085 151.441 4.42556C151.495 4.4814 151.555 4.52328 151.604 4.58611L151.757 4.76062C151.861 4.8723 151.964 4.99097 152.068 5.10265C152.16 5.2283 152.258 5.35395 152.351 5.47261L152.493 5.66109C152.537 5.72391 152.58 5.79371 152.624 5.85654C152.711 5.98916 152.793 6.12179 152.88 6.25442C152.962 6.39402 153.033 6.53363 153.109 6.67324L153.223 6.88265C153.262 6.95245 153.289 7.02924 153.327 7.09904C153.392 7.24563 153.458 7.39222 153.523 7.53881C153.583 7.69237 153.638 7.84594 153.692 7.99253L153.774 8.22288C153.801 8.29967 153.823 8.37645 153.845 8.45324C153.888 8.6068 153.937 8.76735 153.981 8.92092C154.019 9.08147 154.057 9.24202 154.09 9.39559L154.145 9.63292C154.161 9.7097 154.172 9.79347 154.188 9.87025C154.215 10.0308 154.243 10.1913 154.27 10.3519C154.292 10.5124 154.308 10.673 154.325 10.8335L154.352 11.0779C154.363 11.1546 154.363 11.2384 154.368 11.3222C154.379 11.4827 154.384 11.6433 154.395 11.8038C154.401 11.9644 154.395 12.1249 154.395 12.2855C154.395 12.446 154.395 12.6066 154.39 12.7601C154.384 12.9207 154.374 13.0742 154.368 13.2348C154.363 13.3953 154.341 13.5489 154.33 13.7025L154.308 13.9328L154.297 14.0515L154.281 14.1702C154.259 14.3237 154.237 14.4773 154.215 14.6309C153.828 17.067 152.918 19.2798 151.61 20.9202C150.961 21.7159 150.269 22.421 149.549 23.0283C149.369 23.1748 149.189 23.3284 149.004 23.468C148.819 23.6006 148.633 23.7403 148.454 23.8729C148.077 24.1172 147.707 24.3685 147.325 24.5709C146.567 24.9828 145.804 25.3248 145.036 25.5552C144.845 25.625 144.654 25.6668 144.463 25.7157C144.272 25.7646 144.087 25.8204 143.896 25.8483C143.706 25.8832 143.52 25.9181 143.335 25.953C143.149 25.974 142.959 26.0019 142.779 26.0228C142.593 26.0508 142.408 26.0577 142.228 26.0647C142.136 26.0647 142.048 26.0717 141.956 26.0787C141.863 26.0787 141.776 26.0926 141.683 26.0857C141.503 26.0857 141.323 26.0857 141.149 26.0857H141.018L140.887 26.0717C140.8 26.0717 140.713 26.0577 140.626 26.0508C140.538 26.0508 140.451 26.0368 140.364 26.0298H140.233L140.102 26.0019C139.933 25.981 139.764 25.953 139.595 25.9321C139.426 25.9112 139.263 25.8693 139.099 25.8413C138.936 25.8064 138.772 25.7785 138.614 25.7366C137.333 25.4225 136.177 24.9479 135.158 24.3964C134.133 23.845 133.245 23.2237 132.476 22.6164C130.944 21.3669 129.887 20.1803 129.2 19.3496C128.851 18.9378 128.606 18.6027 128.437 18.3793C128.268 18.156 128.18 18.0443 128.18 18.0443C128.18 18.0443 128.268 18.156 128.447 18.3723C128.622 18.5887 128.878 18.9168 129.238 19.3077C129.947 20.1105 131.026 21.2483 132.574 22.4279C133.354 23.0003 134.242 23.5867 135.262 24.0893C136.281 24.5988 137.426 25.0246 138.679 25.2899C138.838 25.3248 138.996 25.3457 139.159 25.3737C139.317 25.3946 139.481 25.4365 139.644 25.4504C139.808 25.4644 139.971 25.4853 140.14 25.5063L140.266 25.5203H140.391C140.473 25.5272 140.56 25.5342 140.647 25.5342C140.735 25.5342 140.816 25.5412 140.904 25.5482H141.034H141.165C141.34 25.5482 141.509 25.5412 141.689 25.5342C141.776 25.5342 141.863 25.5342 141.95 25.5203C142.037 25.5133 142.125 25.5063 142.217 25.4993C142.392 25.4854 142.572 25.4714 142.752 25.4365C142.931 25.4086 143.111 25.3806 143.291 25.3527C143.471 25.3108 143.651 25.2759 143.831 25.2341C144.016 25.1992 144.196 25.1433 144.376 25.0875C144.556 25.0316 144.741 24.9897 144.921 24.913C145.652 24.6686 146.382 24.3266 147.102 23.9078C148.546 23.0771 149.925 21.8486 151.136 20.3129C151.277 20.1174 151.43 19.929 151.561 19.7126C151.626 19.6079 151.697 19.5032 151.762 19.3985C151.822 19.2868 151.888 19.1751 151.948 19.0634L152.04 18.8959C152.068 18.84 152.1 18.7772 152.128 18.7214C152.188 18.6027 152.242 18.491 152.302 18.3723C152.357 18.2537 152.406 18.128 152.46 18.0094C152.509 17.8837 152.569 17.772 152.613 17.6394C152.705 17.3881 152.809 17.1368 152.885 16.8785C152.929 16.7459 152.973 16.6203 153.011 16.4876C153.049 16.355 153.082 16.2224 153.12 16.0898L153.174 15.8873L153.218 15.6849C153.251 15.5453 153.278 15.4127 153.311 15.2731C153.338 15.1335 153.36 14.9938 153.387 14.8542C153.409 14.7146 153.441 14.575 153.452 14.4354C153.469 14.2958 153.49 14.1492 153.507 14.0096L153.523 13.9049L153.534 13.8002L153.55 13.5838C153.561 13.4372 153.578 13.2976 153.583 13.151C153.583 13.0044 153.594 12.8579 153.594 12.7182C153.6 12.5717 153.594 12.4251 153.594 12.2855C153.594 12.1389 153.594 11.9923 153.583 11.8457C153.572 11.6991 153.561 11.5525 153.55 11.4059C153.545 11.3361 153.545 11.2593 153.534 11.1895L153.507 10.9732C153.49 10.8266 153.474 10.68 153.452 10.5404C153.425 10.3938 153.398 10.2542 153.376 10.1076C153.36 10.0378 153.354 9.961 153.338 9.89119L153.289 9.68178C153.256 9.54217 153.223 9.39559 153.185 9.25598C153.142 9.11637 153.098 8.97676 153.054 8.84414C153.033 8.77433 153.016 8.70453 152.989 8.63472L152.913 8.43229C152.858 8.29967 152.815 8.16006 152.755 8.03441C152.695 7.90877 152.635 7.77614 152.575 7.65049C152.542 7.58767 152.515 7.51786 152.482 7.45504L152.378 7.27355C152.308 7.15489 152.242 7.02924 152.171 6.90359C152.095 6.78493 152.019 6.67324 151.942 6.55457C151.904 6.49873 151.866 6.43591 151.828 6.38006L151.702 6.21951C151.615 6.11481 151.533 6.00312 151.446 5.89144C151.354 5.79371 151.261 5.69599 151.168 5.59128L151.032 5.44469C150.988 5.39583 150.934 5.35395 150.885 5.30509C150.787 5.21434 150.689 5.1236 150.585 5.03285C150.558 5.01191 150.536 4.98399 150.509 4.96305L150.427 4.90022L150.269 4.78156C150.16 4.70477 150.056 4.61403 149.953 4.54422C149.844 4.47442 149.729 4.40462 149.62 4.33481C149.506 4.26501 149.397 4.18823 149.282 4.13238C149.168 4.06956 149.048 4.01372 148.933 3.95089C148.873 3.92297 148.819 3.88807 148.759 3.86015L148.579 3.78336C148.334 3.68564 148.099 3.57395 147.848 3.50415C147.598 3.42736 147.352 3.33662 147.096 3.28078C146.971 3.25286 146.84 3.21795 146.715 3.19003C146.649 3.17607 146.589 3.15513 146.524 3.14815L146.328 3.12023C146.197 3.09929 146.071 3.07835 145.941 3.0574L145.842 3.04344H145.744L145.548 3.0225C145.417 3.00854 145.286 3.00156 145.156 2.9876C145.025 2.9876 144.894 2.9876 144.758 2.9876C143.7 2.97364 142.621 3.12023 141.552 3.3785C140.478 3.64376 139.41 4.0207 138.347 4.48838C137.284 4.95607 136.232 5.50054 135.18 6.10085C133.086 7.30845 131.02 8.73943 128.949 10.2612C127.913 11.022 126.872 11.8038 125.825 12.5926C125.302 12.9835 124.773 13.3814 124.239 13.7723C123.705 14.1562 123.171 14.5471 122.636 14.931C120.516 16.4876 118.455 18.149 116.34 19.6567C114.231 21.1645 112.05 22.5187 109.761 23.4052C108.616 23.845 107.444 24.1521 106.272 24.3196C105.094 24.4732 103.917 24.4802 102.767 24.3336C101.606 24.187 100.477 23.8519 99.4088 23.3912C98.3403 22.9236 97.3155 22.3232 96.3724 21.5694C95.9036 21.1924 95.4566 20.7806 95.0369 20.3269C94.6171 19.8731 94.2301 19.3775 93.8812 18.84C93.5323 18.3095 93.2161 17.7371 92.9654 17.1298C92.7092 16.5226 92.502 15.8943 92.3439 15.2451C92.1968 14.596 92.1041 13.9328 92.0496 13.2767C92.0441 13.1091 92.0332 12.9486 92.0278 12.7811C92.0278 12.6973 92.0223 12.6135 92.0169 12.5368V12.2924C92.0169 12.1319 92.0169 11.9644 92.0278 11.8038C92.0387 11.6433 92.0387 11.4827 92.055 11.3152C92.1423 10.0238 92.4257 8.77433 92.8618 7.64351C93.2925 6.51269 93.8921 5.5145 94.5626 4.66289C94.9006 4.23709 95.2658 3.85317 95.6365 3.50415C96.0072 3.14815 96.3997 2.84101 96.7922 2.55482C97.5826 1.98941 98.4057 1.54266 99.2289 1.20062C100.052 0.858586 100.875 0.607293 101.687 0.425803C102.494 0.251294 103.295 0.132627 104.075 0.0628234C104.271 0.0488626 104.462 0.0279215 104.658 0.0209411C104.849 0.0209411 105.04 0.00698038 105.231 0C105.421 0 105.612 0 105.798 0C105.983 0 106.174 0.0139608 106.354 0.0209411C107.09 0.0628234 107.809 0.153568 108.496 0.286195C109.183 0.425803 109.842 0.600312 110.475 0.802743C111.102 1.00517 111.701 1.24949 112.268 1.50078C112.835 1.75905 113.375 2.03129 113.882 2.31748C114.896 2.88289 115.79 3.49019 116.569 4.06956C118.134 5.23528 119.279 6.28234 120.042 6.99434C120.423 7.35732 120.712 7.62955 120.903 7.825C121.094 8.01347 121.197 8.1112 121.197 8.1112H121.165Z" fill="#A69E8D"/>
<path d="M109.265 17.5767C109.265 17.5767 109.357 17.5558 109.537 17.5209C109.624 17.5 109.739 17.486 109.87 17.4581C110.001 17.4302 110.148 17.3953 110.317 17.3534C110.987 17.1858 111.952 16.8857 113.091 16.3482C114.231 15.8177 115.534 15.0429 116.935 14.0586C118.335 13.0744 119.835 11.8808 121.432 10.6452C122.233 10.031 123.018 9.43064 123.798 8.87919C124.185 8.59998 124.572 8.33472 124.953 8.08343C125.324 7.83214 125.689 7.58782 126.049 7.35049C127.466 6.38022 128.736 5.45881 129.838 4.73983C129.974 4.64909 130.11 4.56532 130.241 4.47458C130.372 4.39081 130.503 4.31403 130.628 4.23724C130.879 4.08368 131.113 3.93709 131.337 3.80446C131.789 3.55317 132.171 3.32979 132.492 3.16925C133.141 2.85513 133.495 2.69458 133.495 2.69458C133.495 2.69458 133.168 2.93889 132.569 3.37168C132.274 3.59505 131.92 3.88124 131.506 4.20234C131.304 4.36987 131.086 4.55136 130.857 4.74681C130.743 4.84454 130.623 4.94226 130.503 5.03999C130.383 5.14469 130.257 5.2494 130.132 5.36108C129.625 5.80085 129.069 6.27551 128.475 6.78508C128.175 7.04335 127.864 7.30861 127.543 7.57386C127.216 7.83912 126.883 8.11833 126.54 8.39057C126.191 8.6628 125.825 8.94202 125.466 9.21425C125.106 9.48649 124.735 9.7657 124.359 10.0519C123.607 10.6382 122.833 11.2386 122.037 11.8598C120.44 13.0953 118.875 14.2401 117.387 15.1266C115.899 16.0201 114.487 16.6623 113.271 17.0323C112.056 17.4092 111.047 17.5418 110.349 17.5698C110.175 17.5698 110.022 17.5767 109.886 17.5837C109.755 17.5837 109.641 17.5837 109.548 17.5837C109.368 17.5837 109.27 17.5767 109.27 17.5767H109.265Z" fill="#A69E8D"/>
<path d="M112.088 22.5537C112.088 22.5537 112.181 22.5327 112.361 22.4978C112.448 22.4769 112.563 22.4629 112.693 22.435C112.824 22.4071 112.971 22.3722 113.14 22.3303C113.816 22.1628 114.776 21.8626 115.915 21.3251C117.054 20.7946 118.357 20.0198 119.758 19.0356C121.159 18.0513 122.658 16.8577 124.256 15.6222C125.057 15.0079 125.842 14.4076 126.621 13.8561C127.008 13.5769 127.395 13.3117 127.777 13.0604C128.148 12.8091 128.513 12.5648 128.873 12.3274C130.29 11.3571 131.56 10.4357 132.661 9.71676C132.798 9.62601 132.934 9.54225 133.065 9.4515C133.196 9.36774 133.326 9.29096 133.452 9.21417C133.703 9.0606 133.937 8.91402 134.16 8.78139C134.613 8.5301 134.994 8.30672 135.316 8.14617C135.965 7.83206 136.319 7.67151 136.319 7.67151C136.319 7.67151 135.992 7.91582 135.392 8.34861C135.098 8.57198 134.744 8.85817 134.329 9.17927C134.128 9.3468 133.91 9.52829 133.681 9.72374C133.566 9.82146 133.446 9.91919 133.326 10.0169C133.206 10.1216 133.081 10.2263 132.956 10.338C132.449 10.7778 131.893 11.2524 131.299 11.762C130.999 12.0203 130.688 12.2855 130.366 12.5508C130.039 12.816 129.707 13.0953 129.363 13.3675C129.014 13.6397 128.649 13.9189 128.289 14.1912C127.93 14.4634 127.559 14.7426 127.183 15.0288C126.431 15.6152 125.656 16.2155 124.861 16.8367C123.263 18.0723 121.699 19.2171 120.211 20.1036C118.723 20.997 117.311 21.6392 116.095 22.0092C114.879 22.3861 113.871 22.5188 113.173 22.5467C112.999 22.5467 112.846 22.5537 112.71 22.5607C112.579 22.5607 112.465 22.5607 112.372 22.5607C112.192 22.5607 112.094 22.5537 112.094 22.5537H112.088Z" fill="#A69E8D"/>
<path d="M0 11.427C0 11.427 1.3192 20.4108 10.3246 11.3782C10.3246 11.3782 1.83707 2.2548 0 11.427ZM2.07147 11.3782C2.07147 11.1408 2.2241 10.9454 2.4149 10.9454C2.60569 10.9454 2.75833 11.1338 2.75833 11.3712C2.75833 11.6085 2.60569 11.804 2.4149 11.804C2.2241 11.804 2.07147 11.6155 2.07147 11.3782ZM8.08964 11.3572C8.08964 11.3572 7.5118 14.0586 3.37977 11.3782C3.37977 11.3782 7.23379 8.60694 8.08964 11.3572Z" fill="#A69E8D"/>
<path d="M10.9897 10.1427C11.513 10.1427 11.9382 10.6732 11.9437 11.3294C11.9437 11.9855 11.5239 12.523 11.0006 12.523C10.4773 12.523 10.0521 11.9925 10.0466 11.3363C10.0466 10.6802 10.4664 10.1427 10.9897 10.1427Z" fill="#A69E8D"/>
<path d="M18.2835 10.1078C18.8068 10.1078 19.232 10.6383 19.2374 11.2945C19.2374 11.9506 18.8177 12.4881 18.2944 12.4881C17.771 12.4881 17.3458 11.9576 17.3404 11.3014C17.3404 10.6453 17.7601 10.1078 18.2835 10.1078Z" fill="#A69E8D"/>
<path d="M14.642 8.16028C14.642 8.16028 11.3931 11.3154 11.4258 11.3294C11.3985 11.3433 14.6638 14.4636 14.6638 14.4636C15.04 13.4305 17.9019 11.3014 17.8964 11.2945C17.9455 11.2596 15.0291 9.18639 14.6475 8.16028H14.642Z" fill="#A69E8D"/>
<path d="M99.3106 11.3503C105.176 17.2347 106.032 11.3852 106.032 11.3852C104.838 5.40998 99.3106 11.3503 99.3106 11.3503ZM104.462 11.6295C104.337 11.6295 104.239 11.5039 104.239 11.3503C104.239 11.1967 104.342 11.0711 104.462 11.0711C104.587 11.0711 104.686 11.1967 104.686 11.3503C104.686 11.5039 104.582 11.6295 104.462 11.6295ZM103.83 11.3503C101.137 13.0954 100.761 11.3363 100.761 11.3363C101.322 9.54236 103.83 11.3503 103.83 11.3503Z" fill="#A69E8D"/>
<path d="M98.8745 10.5475C98.5311 10.5475 98.2531 10.8895 98.2531 11.3223C98.2531 11.7481 98.5256 12.0971 98.8691 12.0971C99.2125 12.0971 99.4905 11.7551 99.4905 11.3223C99.4905 10.8965 99.218 10.5475 98.8745 10.5475Z" fill="#A69E8D"/>
<path d="M98.2531 10.8756H18.2834V11.7202H98.2531V10.8756Z" fill="#A69E8D"/>
<path d="M235.886 11.3781C244.891 20.4107 246.211 11.4269 246.211 11.4269C244.374 2.24775 235.886 11.3781 235.886 11.3781ZM243.796 11.8039C243.605 11.8039 243.452 11.6084 243.452 11.3711C243.452 11.1338 243.605 10.9383 243.796 10.9453C243.986 10.9523 244.139 11.1407 244.139 11.3781C244.139 11.6154 243.986 11.8109 243.796 11.8039ZM242.831 11.3851C238.699 14.0655 238.121 11.3641 238.121 11.3641C238.982 8.61385 242.831 11.3851 242.831 11.3851Z" fill="#A69E8D"/>
<path d="M235.215 10.1426C234.692 10.1426 234.267 10.6731 234.261 11.3292C234.261 11.9854 234.681 12.5229 235.205 12.5229C235.728 12.5229 236.153 11.9924 236.159 11.3362C236.159 10.6801 235.739 10.1426 235.215 10.1426Z" fill="#A69E8D"/>
<path d="M227.927 10.1077C227.404 10.1077 226.979 10.6382 226.973 11.2943C226.973 11.9505 227.393 12.488 227.916 12.488C228.44 12.488 228.865 11.9575 228.87 11.3013C228.87 10.6452 228.45 10.1077 227.927 10.1077Z" fill="#A69E8D"/>
<path d="M231.569 8.16016C231.569 8.16016 234.817 11.3153 234.785 11.3292C234.812 11.3432 231.547 14.4634 231.547 14.4634C231.171 13.4303 228.309 11.3013 228.314 11.2943C228.265 11.2594 231.182 9.18627 231.563 8.16016H231.569Z" fill="#A69E8D"/>
<path d="M140.179 11.3851C140.179 11.3851 141.04 17.2346 146.9 11.3502C146.9 11.3502 141.372 5.40986 140.179 11.3851ZM141.525 11.3502C141.525 11.1966 141.623 11.0709 141.749 11.0709C141.874 11.0709 141.972 11.1966 141.972 11.3502C141.972 11.5037 141.874 11.6294 141.749 11.6294C141.623 11.6294 141.525 11.5037 141.525 11.3502ZM145.444 11.3362C145.444 11.3362 145.068 13.0953 142.375 11.3502C142.375 11.3502 144.883 9.54224 145.444 11.3362Z" fill="#A69E8D"/>
<path d="M147.336 10.5475C147.679 10.5475 147.958 10.8895 147.958 11.3223C147.958 11.7481 147.685 12.0971 147.342 12.0971C146.998 12.0971 146.72 11.7551 146.72 11.3223C146.72 10.8965 146.993 10.5475 147.336 10.5475Z" fill="#A69E8D"/>
<path d="M227.927 10.8755H147.958V11.7201H227.927V10.8755Z" fill="#A69E8D"/>
</svg>
