<svg width="328" height="174" viewBox="0 0 328 174" fill="none" xmlns="http://www.w3.org/2000/svg">
<g filter="url(#filter0_d_2_41441)">
<path d="M99.9359 72.04C78.7859 84.91 84.1859 70.78 99.9359 72.04V72.04ZM100.566 71.59C113.616 65.92 138.636 25.33 156.456 27.85C156.366 28.21 156.366 28.21 156.366 28.21C144.666 24.25 119.736 65.38 103.986 72.04C126.036 74.56 155.376 54.67 149.076 33.43C146.556 25.33 139.266 21.55 131.616 22.36C110.826 24.61 82.3859 52.33 103.896 60.07L103.356 60.34C70.1459 45.85 139.896 0.759996 149.616 33.34C155.826 54.04 127.746 75.37 103.266 72.49C102.366 72.4 91.4759 78.97 86.6159 78.07C82.7459 77.35 87.7859 70.6 100.566 71.59ZM178.379 67.27C161.009 75.73 155.969 71.77 158.129 67.36C158.579 66.55 154.169 71.59 151.199 71.05C144.719 69.97 151.919 62.86 154.349 60.79C154.619 60.52 156.779 61.6 156.149 62.23C147.689 68.98 149.399 75.01 158.039 66.73C159.659 65.11 161.189 63.4 162.089 62.68C162.989 61.96 164.699 63.49 163.889 64.21C162.269 65.83 160.469 67.36 160.199 69.16C159.119 76.27 177.389 67.18 178.379 67V67.27ZM188.741 64.12C192.521 59.26 184.061 59.89 181.091 65.47C180.101 68.17 181.361 68.98 182.981 68.98C184.331 68.98 187.571 65.56 188.741 64.12ZM177.131 75.46C172.541 75.28 151.571 80.32 140.861 85.63C134.021 89.14 129.881 91.75 129.071 96.43C128.801 100.84 135.641 104.89 141.581 104.26C151.481 102.28 166.871 85.72 177.131 75.46ZM205.931 66.91V67.27C201.521 69.88 195.401 74.29 181.181 75.28C172.991 83.38 157.421 100.57 145.181 104.35C141.671 105.61 136.901 105.34 134.201 103.81C111.701 90.94 161.111 75.91 177.671 74.92L183.161 69.43C172.361 69.07 182.351 55.75 190.991 61.51L191.801 60.61C194.771 61.51 192.881 63.58 192.161 64.21C190.091 66.19 184.601 71.86 181.631 74.83C181.631 74.83 194.411 74.38 205.931 66.91ZM213.285 68.62C199.335 75.64 206.355 56.92 217.785 62.59L219.585 60.79C221.025 61.15 221.835 61.87 221.295 62.41C205.095 76.72 230.475 69.61 236.235 67V67.36C231.825 69.7 213.735 74.65 213.285 68.62ZM214.365 66.28C220.125 60.34 212.745 61.42 208.785 66.28C204.465 71.5 211.575 69.88 214.365 66.28ZM241.175 68.98C230.825 74.02 226.775 76.45 216.965 82.66C193.025 97.87 206.795 104.98 224.795 86.62C231.095 80.14 236.045 74.02 241.175 68.98ZM249.275 73.03C257.015 71.5 257.465 65.83 256.295 64.75C254.765 63.31 251.525 64.03 248.105 65.83C242.615 71.14 234.965 80.5 226.955 87.97C208.055 105.7 190.685 99.04 216.515 82.39C225.155 76.81 230.825 73.75 241.625 68.35L249.185 60.97C245.585 62.59 236.135 67.63 236.135 67.36V67.09C240.905 64.57 247.745 61.51 254.765 56.11C257.915 54.04 249.995 63.4 248.645 65.02C252.155 63.13 256.295 61.51 257.915 63.22C259.085 64.3 259.085 66.55 257.195 68.89C256.475 69.79 253.775 72.76 249.815 73.21C262.325 72.49 273.665 66.64 273.665 66.91V67.36C267.005 69.61 259.535 72.94 249.545 73.48C242.885 73.48 247.385 68.62 249.275 73.03ZM195.254 97.27C177.884 105.73 172.844 101.77 175.004 97.36C175.454 96.55 171.044 101.59 168.074 101.05C161.594 99.97 168.794 92.86 171.224 90.79C171.494 90.52 173.654 91.6 173.024 92.23C164.564 98.98 166.274 105.01 174.914 96.73C176.534 95.11 178.064 93.4 178.964 92.68C179.864 91.96 181.574 93.49 180.764 94.21C179.144 95.83 177.344 97.36 177.074 99.16C175.994 106.27 194.264 97.18 195.254 97V97.27ZM76.8886 108.73C77.7886 108.82 81.1186 109.27 82.8286 110.08C95.1586 115.84 74.5486 141.22 47.3686 137.53L47.2786 137.17C70.3186 139.87 85.8886 122.86 83.4586 112.78C82.9186 110.53 79.6786 109.54 77.2486 109.09C76.4386 108.91 75.7186 109.36 75.7186 108.73C75.7186 108.19 76.0786 108.46 77.1586 108.37C82.3786 107.65 87.4186 105.67 91.0186 102.16C96.4186 96.76 99.0286 87.31 86.6086 92.08C81.3886 94.06 76.7986 96.67 71.3986 101.17C64.1986 107.29 37.2886 138.43 4.61855 137.35C4.25855 137.53 4.88855 137.35 4.61855 136.81C28.3786 138.61 60.4186 109.63 77.6086 88.75C70.0486 91.18 29.9086 111.52 24.5986 97.75L25.1386 97.57C29.6386 110.98 73.7386 89.47 81.3886 85.15C88.2286 82.27 76.1686 96.58 72.1186 99.73C77.3386 95.77 92.8186 85.42 97.5886 92.89C99.7486 96.31 97.0486 106.21 76.8886 108.73ZM123.667 127.27C106.297 135.73 101.257 131.77 103.417 127.36C103.867 126.55 99.4575 131.59 96.4875 131.05C90.0075 129.97 97.2075 122.86 99.6375 120.79C99.9075 120.52 102.067 121.6 101.437 122.23C92.9775 128.98 94.6875 135.01 103.327 126.73C104.947 125.11 106.477 123.4 107.377 122.68C108.277 121.96 109.987 123.49 109.177 124.21C107.557 125.83 105.757 127.36 105.487 129.16C104.407 136.27 122.677 127.18 123.667 127V127.27ZM129.709 121.06C130.789 119.98 134.209 119.8 133.039 121.06C131.149 122.77 128.809 125.11 128.179 125.83C128.899 125.74 131.509 124.48 134.749 122.86C138.259 121.06 142.039 119.8 140.419 123.94C140.149 124.21 139.699 123.85 139.699 123.76C140.869 120.43 137.719 121.96 132.769 124.3C132.319 139.15 144.109 130.15 154.189 126.91L154.099 127.45C146.089 129.43 132.139 139.96 130.429 125.38C129.259 125.92 128.089 126.28 127.459 126.64L123.949 130.15C122.869 131.32 119.629 131.41 120.799 130.15C123.229 127.36 126.559 124.12 129.709 121.06ZM161.109 129.7C162.729 127.18 167.859 123.4 166.779 122.68C165.789 122.05 161.829 119.89 154.629 129.52C153.819 130.69 150.669 130.33 151.569 129.25C153.099 127.45 156.519 125.11 156.429 121.87L157.689 121.78C157.689 121.96 157.509 122.68 157.509 123.22C162.369 119.89 168.849 121.96 168.489 123.31C169.929 122.68 175.779 120.16 177.579 123.13C179.199 125.83 169.659 130.51 173.979 131.86C177.129 132.85 182.079 130.78 192.249 127C192.789 126.82 193.509 127 192.789 127.27C181.899 130.87 178.029 132.94 174.519 132.31C171.639 131.77 170.649 130.87 170.649 129.79C170.739 127.18 176.769 123.76 176.139 122.86C174.969 121.33 170.019 123.04 168.939 124.3C168.039 125.38 166.779 127 163.899 129.97C162.909 130.6 161.019 130.42 161.109 129.7ZM202.933 123.49C203.293 125.38 203.023 126.82 201.943 128.35C208.783 130.33 214.273 128.89 218.233 126.91V127.27C214.453 129.52 208.603 130.78 201.673 128.71C198.613 132.4 194.743 132.85 192.583 130.96C189.613 128.53 192.223 124.48 194.473 122.68C198.433 119.53 202.033 120.7 202.933 123.49ZM202.033 127.45C203.563 123.67 201.673 119.8 195.373 125.38C188.353 131.95 197.443 133.75 201.133 128.53C198.793 127.18 201.493 125.38 202.033 127.45ZM223.289 128.98C212.939 134.02 208.889 136.45 199.079 142.66C175.139 157.87 188.909 164.98 206.909 146.62C213.209 140.14 218.159 134.02 223.289 128.98ZM231.389 133.03C239.129 131.5 239.579 125.83 238.409 124.75C236.879 123.31 233.639 124.03 230.219 125.83C224.729 131.14 217.079 140.5 209.069 147.97C190.169 165.7 172.799 159.04 198.629 142.39C207.269 136.81 212.939 133.75 223.739 128.35L231.299 120.97C227.699 122.59 218.249 127.63 218.249 127.36V127.09C223.019 124.57 229.859 121.51 236.879 116.11C240.029 114.04 232.109 123.4 230.759 125.02C234.269 123.13 238.409 121.51 240.029 123.22C241.199 124.3 241.199 126.55 239.309 128.89C238.589 129.79 235.889 132.76 231.929 133.21C244.439 132.49 255.779 126.64 255.779 126.91V127.36C249.119 129.61 241.649 132.94 231.659 133.48C224.999 133.48 229.499 128.62 231.389 133.03ZM285.298 127.27C267.928 135.73 262.888 131.77 265.048 127.36C265.498 126.55 261.088 131.59 258.118 131.05C251.638 129.97 258.838 122.86 261.268 120.79C261.538 120.52 263.698 121.6 263.068 122.23C254.608 128.98 256.318 135.01 264.958 126.73C266.578 125.11 268.108 123.4 269.008 122.68C269.908 121.96 271.618 123.49 270.808 124.21C269.188 125.83 267.388 127.36 267.118 129.16C266.038 136.27 284.308 127.18 285.298 127V127.27ZM299.17 119.8C296.74 119.26 294.67 123.4 296.02 124.21C296.83 124.75 298.99 125.29 300.07 123.13C300.7 121.6 300.79 120.16 299.17 119.8ZM298.72 124.93C295.93 125.29 293.41 124.21 293.41 122.32C293.41 117.82 302.14 117.55 300.97 122.86L302.59 121.51C303.76 121.42 304.48 122.14 304.3 122.32C302.59 124.3 300.34 126.55 299.35 128.44C294.76 137.08 314.92 130.06 324.01 126.73V127.18C302.95 135.46 290.53 134.56 298.72 125.38C293.14 129.34 281.53 134.83 283.96 126.55C285.67 124.12 288.82 126.91 284.23 127.9C283.06 134.29 295.75 126.91 298.72 124.93Z" fill="#371A10"/>
</g>
<defs>
<filter id="filter0_d_2_41441" x="0.258553" y="0.759995" width="327.751" height="172.94" filterUnits="userSpaceOnUse" color-interpolation-filters="sRGB">
<feFlood flood-opacity="0" result="BackgroundImageFix"/>
<feColorMatrix in="SourceAlpha" type="matrix" values="0 0 0 0 0 0 0 0 0 0 0 0 0 0 0 0 0 0 127 0" result="hardAlpha"/>
<feOffset dy="4"/>
<feGaussianBlur stdDeviation="2"/>
<feComposite in2="hardAlpha" operator="out"/>
<feColorMatrix type="matrix" values="0 0 0 0 0 0 0 0 0 0 0 0 0 0 0 0 0 0 0.25 0"/>
<feBlend mode="normal" in2="BackgroundImageFix" result="effect1_dropShadow_2_41441"/>
<feBlend mode="normal" in="SourceGraphic" in2="effect1_dropShadow_2_41441" result="shape"/>
</filter>
</defs>
</svg>
