<svg width="306" height="137" viewBox="0 0 306 137" fill="none" xmlns="http://www.w3.org/2000/svg">
<path d="M158.165 1.68L157.985 2.22C143.495 2.48999 128.825 18.69 123.065 24.54C85.9854 62.34 78.2454 59.37 73.5654 58.92C57.6354 57.3 78.2454 36.51 83.0154 28.5C54.0354 51.81 41.3454 60.09 34.1454 60C15.6054 59.82 53.6754 20.58 69.2454 4.38C48.0054 14.01 24.3354 18.96 1.11539 18.06C0.665388 17.79 0.665388 17.79 0.665388 17.52C22.6254 18.33 48.9054 14.01 73.2054 1.59C73.9254 1.5 74.2854 1.59 74.4654 1.86C76.0854 4.55999 34.3254 42.18 32.9754 55.95C32.0754 64.95 48.4554 55.05 86.4354 25.08C101.285 16.44 53.7654 59.55 77.5254 58.38C86.7054 57.84 102.725 43.89 122.345 24.18C126.845 19.68 144.935 0.599998 158.165 1.68ZM120.722 41.37C128.012 40.11 131.432 37.59 129.092 36.6C127.022 35.52 122.882 38.67 120.722 41.37ZM117.482 40.56C121.262 35.97 127.292 34.98 129.632 36.42C132.782 38.4 125.222 41.1 120.272 41.91C112.622 50.1 139.802 44.25 143.222 42.09C144.212 41.73 143.672 42.18 143.492 42.36C140.882 44.52 110.282 51.27 117.482 40.56ZM151.034 42.54C136.994 48.57 145.364 30.57 155.804 36.33C162.914 29.76 179.564 10.5 189.734 7.98C193.334 7.08 196.304 7.98 195.404 10.5C192.614 17.88 174.434 34.89 160.754 37.14C160.124 37.23 158.594 37.32 158.324 37.59C141.314 53.88 162.194 48.93 180.374 42C181.184 41.73 181.184 42 180.464 42.27C168.494 47.4 143.474 53.79 151.034 42.54ZM158.954 36.96C173.984 35.25 190.184 18.51 194.234 11.85C197.114 7.08 191.354 7.8 188.384 9.15C181.724 12.21 163.274 33 158.954 36.96ZM153.644 39.03C156.974 34.62 151.304 34.71 147.794 39.03C142.214 45.87 151.574 42.9 153.644 39.03ZM188.124 42.54C174.084 48.57 182.454 30.57 192.894 36.33C200.004 29.76 216.654 10.5 226.824 7.98C230.424 7.08 233.394 7.98 232.494 10.5C229.704 17.88 211.524 34.89 197.844 37.14C197.214 37.23 195.684 37.32 195.414 37.59C178.404 53.88 199.284 48.93 217.464 42C218.274 41.73 218.274 42 217.554 42.27C205.584 47.4 180.564 53.79 188.124 42.54ZM196.044 36.96C211.074 35.25 227.274 18.51 231.324 11.85C234.204 7.08 228.444 7.8 225.474 9.15C218.814 12.21 200.364 33 196.044 36.96ZM190.734 39.03C194.064 34.62 188.394 34.71 184.884 39.03C179.304 45.87 188.664 42.9 190.734 39.03ZM223.504 35.43C224.224 34.62 226.474 35.88 225.844 36.6C223.414 39.48 217.834 43.26 220.354 45.6C223.414 48.48 243.124 42.9 245.014 41.91C245.014 42.09 245.104 42.36 244.924 42.45C241.864 43.8 223.774 48.84 219.724 46.41C215.314 43.71 217.834 41.37 223.504 35.43ZM229.084 33.27C226.294 34.53 224.854 33.27 226.474 32.37C228.544 31.29 230.704 32.01 229.084 33.27ZM251.202 38.85L245.532 44.52C244.902 45.06 242.652 44.43 243.282 43.8C247.422 39.66 250.572 36.06 251.202 36.15L252.102 36.33C253.182 36.6 252.192 37.86 252.012 38.04C253.722 37.77 258.492 36.15 259.932 37.86C262.092 40.2 252.012 45.24 256.332 46.59C259.482 47.58 266.952 45.87 277.122 42.09C277.662 41.91 278.382 42.18 277.662 42.45C266.772 46.05 260.382 47.85 256.872 47.04C245.622 44.43 263.712 36.6 256.692 37.5C254.262 37.86 252.102 38.49 251.202 38.85ZM287.862 39.12C291.642 34.26 283.182 34.89 280.212 40.47C279.222 43.17 280.482 43.98 282.102 43.98C283.452 43.98 286.692 40.56 287.862 39.12ZM276.252 50.46C271.662 50.28 250.692 55.32 239.982 60.63C233.142 64.14 229.002 66.75 228.192 71.43C227.922 75.84 234.762 79.89 240.702 79.26C250.602 77.28 265.992 60.72 276.252 50.46ZM305.052 41.91V42.27C300.642 44.88 294.522 49.29 280.302 50.28C272.112 58.38 256.542 75.57 244.302 79.35C240.792 80.61 236.022 80.34 233.322 78.81C210.822 65.94 260.232 50.91 276.792 49.92L282.282 44.43C271.482 44.07 281.472 30.75 290.112 36.51L290.922 35.61C293.892 36.51 292.002 38.58 291.282 39.21C289.212 41.19 283.722 46.86 280.752 49.83C280.752 49.83 293.532 49.38 305.052 41.91ZM163.998 92.54C149.958 98.57 158.328 80.57 168.768 86.33C175.878 79.76 192.528 60.5 202.698 57.98C206.298 57.08 209.268 57.98 208.368 60.5C205.578 67.88 187.398 84.89 173.718 87.14C173.088 87.23 171.558 87.32 171.288 87.59C154.278 103.88 175.158 98.93 193.338 92C194.148 91.73 194.148 92 193.428 92.27C181.458 97.4 156.438 103.79 163.998 92.54ZM171.918 86.96C186.948 85.25 203.148 68.51 207.198 61.85C210.078 57.08 204.318 57.8 201.348 59.15C194.688 62.21 176.238 83 171.918 86.96ZM166.608 89.03C169.938 84.62 164.268 84.71 160.758 89.03C155.178 95.87 164.538 92.9 166.608 89.03ZM201.268 93.62C187.318 100.64 194.338 81.92 205.768 87.59L207.568 85.79C209.008 86.15 209.818 86.87 209.278 87.41C193.078 101.72 218.458 94.61 224.218 92V92.36C219.808 94.7 201.718 99.65 201.268 93.62ZM202.348 91.28C208.108 85.34 200.728 86.42 196.768 91.28C192.448 96.5 199.558 94.88 202.348 91.28ZM227.896 96.95C207.646 101.18 188.566 110.9 184.156 118.55C181.456 123.23 183.886 125.93 187.126 127.64C198.736 133.49 222.316 101.81 227.896 96.95ZM231.406 96.77C216.196 112.07 196.936 136.1 184.876 126.74C181.726 124.31 181.906 121.16 184.066 117.65C187.666 111.89 203.956 101.36 228.346 96.41C230.146 94.52 230.686 94.07 232.666 92.09C224.926 96.86 220.156 90.56 228.256 85.34C229.246 84.71 232.036 85.61 231.406 85.88C225.286 88.67 224.836 95.24 230.506 92.72C231.586 92.36 239.236 88.13 236.356 91.64C235.546 92.63 231.676 96.23 232.216 96.23C242.476 95.78 251.476 92.09 251.476 91.82V92.27C245.536 94.43 242.476 95.96 231.406 96.77Z" fill="#dbdada"/>
</svg>
